<svg width="50" height="58" viewBox="0 0 50 58" fill="none" xmlns="http://www.w3.org/2000/svg">
<path d="M44.25 0.5H5.75C2.6975 0.5 0.25 2.975 0.25 6V44.5C0.25 47.525 2.725 50 5.75 50H16.75L23.0475 56.2975C24.12 57.37 25.8525 57.37 26.925 56.2975L33.25 50H44.25C47.275 50 49.75 47.525 49.75 44.5V6C49.75 2.975 47.275 0.5 44.25 0.5ZM25 9.575C29.0975 9.575 32.425 12.9025 32.425 17C32.425 21.0975 29.0975 24.425 25 24.425C20.9025 24.425 17.575 21.0975 17.575 17C17.575 12.9025 20.9025 9.575 25 9.575ZM41.5 39H8.5V36.525C8.5 31.025 19.5 28 25 28C30.5 28 41.5 31.025 41.5 36.525V39Z" fill="#FFCC57"/>
</svg>
