<svg width="54" height="50" viewBox="0 0 54 50" fill="none" xmlns="http://www.w3.org/2000/svg">
<path d="M0.373625 25.5106C0.0703426 24.5173 -0.288136 16.7367 0.373625 15.9601C1.03539 15.1835 35.6561 -0.933059 37.9788 0.0425518C40.3015 1.01816 52.7675 24.336 53.1005 25.5106C53.4335 26.6852 51.4438 33.8481 50.5139 34.6632C49.5839 35.4783 16.4252 50.5615 13.9035 49.9838C11.3818 49.4062 0.676908 26.5039 0.373625 25.5106Z" fill="#323232"/>
<path d="M16.5128 42.2057C14.722 41.8087 3.38079 20.7161 4.17666 18.7273C5.02916 16.597 6.76326 15.7428 9.34986 15.9417C11.3395 13.7531 12.3344 13.7531 14.722 13.7531H14.722C17.3086 10.5696 19.0994 12.3603 19.4973 13.5541C23.4767 13.5541 22.2829 15.9417 22.2829 17.5335C24.0237 17.8407 24.3442 21.0238 23.7865 22.1089C23.2288 23.1939 11.3185 25.973 12.9065 28.4874C14.4946 31.0018 24.1552 23.4403 25.3783 23.7006C26.6014 23.9609 27.3942 26.1287 26.97 27.0831C29.7556 27.481 29.7556 29.6697 29.7556 31.2614C30.9494 31.2614 31.9443 33.6491 31.3474 35.0419C30.7505 36.4346 18.3035 42.6027 16.5128 42.2057Z" fill="white"/>
<path d="M15.4647 23.1667C14.2709 23.7636 11.0874 23.1667 11.4854 20.5801C11.4854 19.9832 11.8435 18.7098 13.2761 18.3914C15.0668 17.9935 16.6586 19.5852 16.8575 20.3811C17.0565 21.177 16.6586 22.5698 15.4647 23.1667Z" fill="#E25321"/>
<path d="M22.2284 35.1047C21.0346 35.7016 17.8511 35.1047 18.249 32.5181C18.249 31.9212 18.6072 30.6478 20.0398 30.3294C21.8305 29.9315 23.4222 31.5232 23.6212 32.3191C23.8202 33.115 23.4222 34.5078 22.2284 35.1047Z" fill="#636D2D"/>
<path d="M41.7324 24.6235C40.7906 24.2156 38.9911 24.9273 40.0847 26.7058C40.3533 26.9465 41.0966 27.5543 41.9211 28.0606C42.9518 28.6935 42.5981 28.7527 42.2769 28.9604C41.2412 29.6301 40.7703 29.4261 39.8286 29.0182C38.8869 28.6102 38.803 27.0827 38.3322 26.8787C37.8613 26.6747 36.9825 27.4125 36.5326 27.5904C36.0827 27.7683 35.2459 29.2698 36.5225 30.1957C37.5437 30.9363 38.3989 30.8843 38.6988 30.7656L38.7407 31.5294C39.2904 34.5636 41.7229 32.8213 42.5127 31.8586C45.3849 32.5436 45.9758 30.7491 46.3158 29.9643C46.6557 29.1796 42.6741 25.0315 41.7324 24.6235Z" fill="#F8B500"/>
<path d="M42.4491 23.7611C41.6737 23.1948 40.2683 22.9212 39.6625 22.8552C39.0961 22.2334 38.3147 20.9075 39.7202 20.5787C41.1257 20.2498 42.5971 21.9172 43.1571 22.7919C43.426 22.166 44.1897 20.9957 45.0927 21.3223C45.9956 21.6489 46.3891 23.1017 46.4729 23.7872C46.9385 23.394 48.0934 22.7652 48.9887 23.3953C49.8839 24.0255 49.2701 25.2755 48.8512 25.8217C47.9499 26.4317 46.0012 27.4201 45.4172 26.494C44.6872 25.3365 43.4183 24.4691 42.4491 23.7611Z" fill="#636D2D"/>
<path d="M42.4931 17.2215C39.2439 17.1814 33.0187 19.0296 31.3447 21.4945C30.8187 21.8299 29.63 21.914 29.083 19.5677C28.5361 17.2213 38.3897 11.3057 42.4931 13.1688C44.2593 13.9707 44.8012 17.25 42.4931 17.2215Z" fill="#E25321"/>
<path d="M37.6823 11.2141C35.1352 11.2828 33.1239 11.9289 30.8459 13.6055C29.8427 14.3438 29.4591 15.6634 28.543 15.8124C27.3979 15.9987 24.887 13.9526 24.3967 13.0644C24.0165 12.3755 23.4297 9.62105 25.4222 9.62105C25.4221 7.63135 27.409 7.2334 28.2049 8.02929C28.296 7.33786 29.1998 5.06442 30.8459 5.59757C31.4902 4.94897 33.776 3.8509 34.5719 5.06442C36.5616 3.65193 39.0932 6.10225 39.4843 6.5649C40.5118 7.78059 39.1314 10.7709 37.6823 11.2141Z" fill="#F8B500"/>
<path d="M34.0921 27.4617C33.7615 27.156 32.6939 25.6581 32.2014 24.9473C32.1779 24.3508 32.7588 23.9298 33.9361 23.4853C34.8779 23.1298 34.9614 24.2416 35.1836 24.8302C35.9633 24.4014 36.4474 24.0213 36.7429 23.9725C38.3256 23.7113 38.9767 25.0796 38.6025 25.6917C38.2283 26.3037 34.5054 27.8437 34.0921 27.4617Z" fill="#636D2D"/>
</svg>
