<svg width="52" height="41" viewBox="0 0 52 41" fill="none" xmlns="http://www.w3.org/2000/svg">
<path d="M46.8 0H5.2C2.314 0 0.026 2.28062 0.026 5.125L0 35.875C0 38.7194 2.314 41 5.2 41H46.8C49.686 41 52 38.7194 52 35.875V5.125C52 2.28062 49.686 0 46.8 0ZM46.8 33.3125C46.8 34.7219 45.63 35.875 44.2 35.875H7.8C6.37 35.875 5.2 34.7219 5.2 33.3125V7.6875C5.2 6.27812 6.37 5.125 7.8 5.125H44.2C45.63 5.125 46.8 6.27812 46.8 7.6875V33.3125ZM31.2 15.375C32.63 15.375 33.8 14.2219 33.8 12.8125C33.8 11.4031 32.63 10.25 31.2 10.25H28.6V10.2244C28.6 8.815 27.43 7.66187 26 7.66187C24.57 7.66187 23.4 8.815 23.4 10.2244V10.25H20.8C19.37 10.25 18.2 11.4031 18.2 12.8125V20.5C18.2 21.9094 19.37 23.0625 20.8 23.0625H28.6V25.625H20.8C19.37 25.625 18.2 26.7781 18.2 28.1875C18.2 29.5969 19.37 30.75 20.8 30.75H23.4C23.4 32.1594 24.57 33.3125 26 33.3125C27.43 33.3125 28.6 32.1594 28.6 30.75H31.2C32.63 30.75 33.8 29.5969 33.8 28.1875V20.5C33.8 19.0906 32.63 17.9375 31.2 17.9375H23.4V15.375H31.2Z" fill="#FFCC57"/>
</svg>
