<svg width="37" height="31" viewBox="0 0 37 31" fill="none" xmlns="http://www.w3.org/2000/svg">
<path d="M36.55 4.3C36.55 1.935 34.615 0 32.25 0H27.95C26.7675 0 25.8 0.9675 25.8 2.15C25.8 3.3325 26.7675 4.3 27.95 4.3H32.25V9.9975L24.768 19.35H17.2V10.75C17.2 9.5675 16.2325 8.6 15.05 8.6H8.6C3.8485 8.6 0 12.4485 0 17.2V23.65H4.3C4.3 27.219 7.181 30.1 10.75 30.1C14.319 30.1 17.2 27.219 17.2 23.65H26.832L36.55 11.5025V4.3ZM10.75 25.8C9.5675 25.8 8.6 24.8325 8.6 23.65H12.9C12.9 24.8325 11.9325 25.8 10.75 25.8Z" fill="#FFCC57"/>
</svg>
