<svg width="43" height="20" viewBox="0 0 43 20" fill="none" xmlns="http://www.w3.org/2000/svg">
<path d="M36.2275 0.43C32.6442 -0.645 28.9533 0.358333 26.5704 2.74125L21.5 7.23833L18.7767 9.63917H18.7946L13.975 13.9213C12.5238 15.3725 10.4812 15.9817 8.385 15.5696C6.14542 15.1217 4.3 13.33 3.78042 11.1083C2.84875 7.11292 5.85875 3.58333 9.675 3.58333C11.3054 3.58333 12.8283 4.21042 14.0467 5.42875L14.8888 6.16333C15.5696 6.7725 16.5908 6.7725 17.2717 6.16333C18.0779 5.44667 18.0779 4.1925 17.2717 3.47583L16.5192 2.83083C14.6917 1.00333 12.255 0 9.675 0C4.33583 0 0 4.33583 0 9.63917C0 14.9425 4.33583 19.2783 9.675 19.2783C12.255 19.2783 14.6917 18.275 16.4296 16.5371L21.5 12.0579L21.5179 12.0758L24.2233 9.63917H24.2054L29.025 5.35708C30.4763 3.90583 32.5187 3.29667 34.615 3.70875C36.8546 4.15667 38.7 5.94833 39.2196 8.17C40.1512 12.1654 37.1413 15.695 33.325 15.695C31.7125 15.695 30.1717 15.0679 28.9533 13.8496L28.0933 13.0971C27.4125 12.4879 26.3913 12.4879 25.7104 13.0971C24.9042 13.8138 24.9042 15.0679 25.7104 15.7846L26.4629 16.4475C28.2904 18.2571 30.7092 19.2604 33.3071 19.2604C39.1658 19.2604 43.8062 14.0646 42.8567 8.0625C42.3192 4.49708 39.6854 1.45125 36.2275 0.43Z" fill="#FFCC57"/>
</svg>
