<svg width="68" height="53" viewBox="0 0 68 53" fill="none" xmlns="http://www.w3.org/2000/svg">
<path d="M50.959 0.875C44.9465 0.875 38.4715 2.10833 34.0006 5.5C29.5298 2.10833 23.0548 0.875 17.0423 0.875C12.5715 0.875 7.82315 1.55333 3.84565 3.31083C1.59482 4.32833 0.0839844 6.5175 0.0839844 9.015V43.795C0.0839844 47.8033 3.84565 50.7633 7.73065 49.7767C10.7523 49.0058 13.959 48.6667 17.0423 48.6667C21.8523 48.6667 26.9707 49.4683 31.1023 51.5033C32.9523 52.4283 35.049 52.4283 36.8682 51.5033C40.9998 49.4375 46.1181 48.6667 50.9282 48.6667C54.0115 48.6667 57.2182 49.0058 60.2398 49.7767C64.1248 50.7942 67.8865 47.8342 67.8865 43.795V9.015C67.8865 6.5175 66.3756 4.32833 64.1248 3.31083C60.1782 1.55333 55.4298 0.875 50.959 0.875ZM61.7506 40.1258C61.7506 42.0683 59.9623 43.4867 58.0506 43.1475C55.7381 42.7158 53.3331 42.5308 50.959 42.5308C45.7173 42.5308 38.1632 44.535 34.0006 47.1558V11.6667C38.1632 9.04583 45.7173 7.04167 50.959 7.04167C53.7957 7.04167 56.6015 7.31917 59.284 7.905C60.7023 8.21333 61.7506 9.4775 61.7506 10.9267V40.1258Z" fill="#FFCC57"/>
</svg>
