<svg width="40" height="40" viewBox="0 0 40 40" fill="none" xmlns="http://www.w3.org/2000/svg">
<path d="M37.4458 7.16667H30.4583V1.79167C30.4583 0.80625 29.6521 0 28.6667 0C27.6812 0 26.875 0.80625 26.875 1.79167V7.16667H19.8875C18.8304 7.16667 18.0063 8.08042 18.0958 9.1375L18.3108 11.3054C24.9042 12.8283 30.4583 17.5046 30.4583 25.0833L30.4942 39.4167H33.54C35.045 39.4167 36.2812 38.2521 36.4604 36.7829L39.2196 9.1375C39.3271 8.08042 38.5029 7.16667 37.4458 7.16667ZM25.0833 35.8333H1.79167C0.80625 35.8333 0 36.6396 0 37.625C0 38.6104 0.80625 39.4167 1.79167 39.4167H25.0833C26.0688 39.4167 26.875 38.6104 26.875 37.625C26.875 36.6396 26.0688 35.8333 25.0833 35.8333ZM1.97083 25.0833H24.9042C26.015 25.0833 26.8929 24.08 26.6779 23.005C25.5133 17.2179 19.4754 14.3154 13.4375 14.3154C7.39958 14.3154 1.37958 17.2179 0.197083 23.005C-0.0179166 24.08 0.877916 25.0833 1.97083 25.0833ZM25.0833 28.6667H1.79167C0.80625 28.6667 0 29.4729 0 30.4583C0 31.4437 0.80625 32.25 1.79167 32.25H25.0833C26.0688 32.25 26.875 31.4437 26.875 30.4583C26.875 29.4729 26.0688 28.6667 25.0833 28.6667Z" fill="#FFCC57"/>
</svg>
