<svg width="37" height="37" viewBox="0 0 37 37" fill="none" xmlns="http://www.w3.org/2000/svg">
<path d="M27.1304 23.861H25.4159L24.8082 23.2753C27.4126 20.2386 28.7582 16.0957 28.0203 11.6926C27.0002 5.66259 21.9651 0.847288 15.8881 0.10981C6.70767 -1.0181 -1.0187 6.70373 0.109874 15.8788C0.847785 21.9522 5.66591 26.9844 11.6994 28.0038C16.1052 28.7413 20.2505 27.3965 23.289 24.7936L23.8749 25.401V27.1145L33.0988 36.333C33.9887 37.2223 35.4428 37.2223 36.3326 36.333C37.2225 35.4437 37.2225 33.9904 36.3326 33.1011L27.1304 23.861ZM14.1085 23.861C8.70437 23.861 4.34201 19.5012 4.34201 14.1002C4.34201 8.69926 8.70437 4.33947 14.1085 4.33947C19.5126 4.33947 23.8749 8.69926 23.8749 14.1002C23.8749 19.5012 19.5126 23.861 14.1085 23.861Z" fill="#FFCC57"/>
</svg>
